<svg xmlns="http://www.w3.org/2000/svg" width="512" height="512" viewBox="0 0 512 512">
  <defs>
    <linearGradient id="background" x1="80" y1="60" x2="430" y2="460" gradientUnits="userSpaceOnUse">
      <stop offset="0" stop-color="#123247"/>
      <stop offset="1" stop-color="#0b1d2c"/>
    </linearGradient>
    <linearGradient id="photo" x1="148" y1="148" x2="368" y2="354" gradientUnits="userSpaceOnUse">
      <stop offset="0" stop-color="#e8f3fb"/>
      <stop offset="1" stop-color="#b9d4e4"/>
    </linearGradient>
  </defs>

  <rect x="32" y="32" width="448" height="448" rx="96" fill="url(#background)"/>
  <rect x="56" y="56" width="400" height="400" rx="76" fill="none" stroke="#2a5873" stroke-width="16"/>

  <g fill="none" stroke="#ffffff" stroke-linecap="round" stroke-linejoin="round">
    <path d="M150 154h212c17.7 0 32 14.3 32 32v154c0 17.7-14.3 32-32 32H150c-17.7 0-32-14.3-32-32V186c0-17.7 14.3-32 32-32z" fill="url(#photo)" stroke-width="18"/>
    <path d="M142 323l67-70 53 49 41-42 67 63" stroke="#18445e" stroke-width="19"/>
    <circle cx="328" cy="211" r="22" fill="#ffd59e" stroke="#18445e" stroke-width="14"/>
  </g>

  <g fill="none" stroke="#6bd6ff" stroke-linecap="round" stroke-linejoin="round" stroke-width="22">
    <path d="M116 116h88"/>
    <path d="M116 116v88"/>
    <path d="M396 396h-88"/>
    <path d="M396 396v-88"/>
  </g>
</svg>
